<svg width="22" height="22" viewBox="0 0 22 22" fill="none" xmlns="http://www.w3.org/2000/svg">
<path d="M21.4938 20.2039L17.3858 16.0959C18.0965 15.2639 18.6512 14.3236 19.0498 13.2749C19.4485 12.2262 19.6478 11.1386 19.6478 10.0119C19.6478 8.29591 19.2145 6.70124 18.3478 5.22791C17.5158 3.78924 16.3805 2.64524 14.9418 1.79591C13.4685 0.929245 11.8652 0.495911 10.1318 0.495911C8.39851 0.495911 6.79518 0.929245 5.32184 1.79591C3.88318 2.62791 2.73918 3.75458 1.88984 5.17591C1.02318 6.66658 0.589844 8.27424 0.589844 9.99891C0.589844 11.7236 1.02318 13.3226 1.88984 14.7959C2.72184 16.2346 3.84851 17.3786 5.26984 18.2279C6.76051 19.1119 8.37251 19.5539 10.1058 19.5539C11.2325 19.5539 12.3202 19.3546 13.3688 18.9559C14.4175 18.5572 15.3578 18.0026 16.1898 17.2919L20.2978 21.3999C20.3498 21.4519 20.4278 21.4996 20.5318 21.5429C20.6358 21.5862 20.7398 21.6079 20.8438 21.6079C20.9478 21.6079 21.0518 21.5862 21.1558 21.5429C21.2598 21.4996 21.3378 21.4519 21.3898 21.3999C21.5978 21.1919 21.7062 20.9839 21.7148 20.7759C21.7235 20.5679 21.6498 20.3772 21.4938 20.2039ZM2.30584 9.90791C2.30584 8.48658 2.66118 7.16924 3.37184 5.95591C4.06518 4.79458 4.99251 3.86724 6.15384 3.17391C7.36718 2.46325 8.68451 2.10791 10.1058 2.10791C11.5272 2.10791 12.8445 2.47191 14.0578 3.19991C15.2365 3.89324 16.1725 4.83791 16.8658 6.03391C17.5592 7.22991 17.9058 8.52991 17.9058 9.93391C17.9058 11.3379 17.5418 12.6466 16.8138 13.8599C16.1205 15.0386 15.1758 15.9746 13.9798 16.6679C12.7838 17.3612 11.4925 17.7079 10.1058 17.7079C8.70184 17.7426 7.38451 17.4046 6.15384 16.6939C4.99251 16.0179 4.06084 15.0732 3.35884 13.8599C2.65684 12.6466 2.30584 11.3292 2.30584 9.90791Z" fill="black"/>
</svg>
